<svg width="23" height="20" viewBox="0 0 23 20" fill="none" xmlns="http://www.w3.org/2000/svg">
<path d="M10.7241 3.28521L11.16 4.06086L11.5959 3.28521C12.537 1.61064 14.3298 0.5 16.3587 0.5C19.3697 0.5 21.82 2.95039 21.82 5.96135C21.82 8.38064 20.1235 11.4079 16.5365 14.9767L16.8891 15.3311L16.5365 14.9767C13.9441 17.5559 11.3908 19.387 11.2914 19.4579C11.2521 19.486 11.2063 19.5 11.16 19.5C11.1137 19.5 11.0679 19.486 11.0285 19.4579C10.9274 19.3856 8.37497 17.5549 5.78355 14.9767L5.4309 15.3311L5.78355 14.9766C2.19656 11.4079 0.5 8.38064 0.5 5.96135C0.5 2.95039 2.95039 0.5 5.96135 0.5C7.9902 0.5 9.78309 1.61064 10.7241 3.28521Z" stroke="#D5D5D5"/>
</svg>
