<svg width="20" height="20" viewBox="0 0 20 20" fill="none" xmlns="http://www.w3.org/2000/svg">
<path d="M5.7323 0C2.57128 0 0 2.57366 0 5.7355V13.9268C0 17.0878 2.57366 19.6591 5.7355 19.6591H13.9268C17.0878 19.6591 19.6591 17.0854 19.6591 13.9236V5.7323C19.6591 2.57128 17.0854 0 13.9236 0H5.7323ZM15.5634 3.27651C16.0156 3.27651 16.3826 3.64348 16.3826 4.09564C16.3826 4.5478 16.0156 4.91477 15.5634 4.91477C15.1113 4.91477 14.7443 4.5478 14.7443 4.09564C14.7443 3.64348 15.1113 3.27651 15.5634 3.27651ZM9.82954 4.91477C12.54 4.91477 14.7443 7.11905 14.7443 9.82954C14.7443 12.54 12.54 14.7443 9.82954 14.7443C7.11905 14.7443 4.91477 12.54 4.91477 9.82954C4.91477 7.11905 7.11905 4.91477 9.82954 4.91477ZM9.82954 6.55303C8.96056 6.55303 8.12716 6.89823 7.5127 7.5127C6.89823 8.12716 6.55303 8.96056 6.55303 9.82954C6.55303 10.6985 6.89823 11.5319 7.5127 12.1464C8.12716 12.7609 8.96056 13.1061 9.82954 13.1061C10.6985 13.1061 11.5319 12.7609 12.1464 12.1464C12.7609 11.5319 13.1061 10.6985 13.1061 9.82954C13.1061 8.96056 12.7609 8.12716 12.1464 7.5127C11.5319 6.89823 10.6985 6.55303 9.82954 6.55303Z" fill="#D5D5D5"/>
</svg>
