<svg width="21" height="20" viewBox="0 0 21 20" fill="none" xmlns="http://www.w3.org/2000/svg">
<path d="M12.329 9.82604L9.98939 8.73438C9.78522 8.63958 9.61751 8.74583 9.61751 8.97187V11.0281C9.61751 11.2542 9.78522 11.3604 9.98939 11.2656L12.3279 10.174C12.5331 10.0781 12.5331 9.92188 12.329 9.82604ZM10.6592 0C5.13626 0 0.65918 4.47708 0.65918 10C0.65918 15.5229 5.13626 20 10.6592 20C16.1821 20 20.6592 15.5229 20.6592 10C20.6592 4.47708 16.1821 0 10.6592 0ZM10.6592 14.0625C5.54043 14.0625 5.45085 13.601 5.45085 10C5.45085 6.39896 5.54043 5.9375 10.6592 5.9375C15.7779 5.9375 15.8675 6.39896 15.8675 10C15.8675 13.601 15.7779 14.0625 10.6592 14.0625Z" fill="#D5D5D5"/>
</svg>
