<svg width="22" height="22" viewBox="0 0 22 22" fill="none" xmlns="http://www.w3.org/2000/svg">
<path d="M21.7227 20.432L15.4106 14.1101C16.655 12.6166 17.4034 10.7078 17.4034 8.62312C17.4034 3.86709 13.5034 0 8.70622 0C3.90901 0 0 3.8716 0 8.62763C0 13.3837 3.89999 17.2507 8.6972 17.2507C10.7351 17.2507 12.6107 16.5513 14.0986 15.3826L20.4332 21.7225C20.803 22.0925 21.353 22.0925 21.7227 21.7225C22.0924 21.3525 22.0924 20.802 21.7227 20.432ZM1.84855 8.62763C1.84855 4.8914 4.92346 1.85458 8.6972 1.85458C12.471 1.85458 15.5459 4.8914 15.5459 8.62763C15.5459 12.3639 12.471 15.4007 8.6972 15.4007C4.92346 15.4007 1.84855 12.3593 1.84855 8.62763Z" fill="#D5D5D5"/>
</svg>
