<svg width="266" height="27" viewBox="0 0 266 27" fill="none" xmlns="http://www.w3.org/2000/svg">
<path d="M154.938 6H157.25L162.688 19.2812H162.875L168.313 6H170.625V22H168.812V9.84375H168.656L163.656 22H161.906L156.906 9.84375H156.75V22H154.938V6ZM173.635 7.71875V6H185.635V7.71875H180.604V22H178.666V7.71875H173.635ZM187.412 22H185.381L191.256 6H193.256L199.131 22H197.1L192.318 8.53125H192.193L187.412 22ZM188.162 15.75H196.35V17.4687H188.162V15.75Z" fill="#787878"/>
<path d="M206.801 5.38843H207.756L210.003 10.8765H210.081L212.327 5.38843H213.283V12H212.534V6.97676H212.47L210.403 12H209.68L207.614 6.97676H207.55V12H206.801V5.38843ZM216.244 12.1162C215.93 12.1162 215.645 12.057 215.389 11.9387C215.133 11.8181 214.929 11.6449 214.779 11.4189C214.628 11.1908 214.553 10.9153 214.553 10.5925C214.553 10.3084 214.609 10.0781 214.72 9.9016C214.832 9.72297 214.982 9.58307 215.169 9.48192C215.356 9.38077 215.563 9.30544 215.789 9.25594C216.017 9.20429 216.246 9.1634 216.477 9.13326C216.778 9.09452 217.022 9.06547 217.209 9.0461C217.399 9.02458 217.537 8.98907 217.623 8.93957C217.711 8.89007 217.755 8.80398 217.755 8.6813V8.65548C217.755 8.33695 217.668 8.08945 217.494 7.91296C217.321 7.73648 217.06 7.64824 216.709 7.64824C216.345 7.64824 216.06 7.72788 215.854 7.88714C215.647 8.0464 215.502 8.21643 215.418 8.39721L214.695 8.13895C214.824 7.83764 214.996 7.60305 215.211 7.43518C215.429 7.26515 215.665 7.14678 215.921 7.08006C216.18 7.01119 216.434 6.97676 216.683 6.97676C216.843 6.97676 217.025 6.99613 217.232 7.03487C217.441 7.07145 217.642 7.14786 217.836 7.26408C218.032 7.38029 218.194 7.5557 218.323 7.79029C218.452 8.02488 218.517 8.3391 218.517 8.73295V12H217.755V11.3285H217.716C217.665 11.4361 217.579 11.5513 217.458 11.6739C217.338 11.7966 217.177 11.901 216.977 11.9871C216.777 12.0732 216.533 12.1162 216.244 12.1162ZM216.36 11.4318C216.662 11.4318 216.916 11.3726 217.122 11.2543C217.331 11.1359 217.488 10.9831 217.594 10.7958C217.701 10.6086 217.755 10.4117 217.755 10.2051V9.50775C217.723 9.54649 217.652 9.582 217.542 9.61428C217.434 9.64441 217.31 9.67132 217.168 9.69499C217.028 9.71651 216.891 9.73588 216.758 9.7531C216.626 9.76816 216.52 9.78108 216.438 9.79184C216.24 9.81767 216.055 9.85963 215.883 9.91774C215.713 9.9737 215.575 10.0587 215.469 10.1728C215.366 10.2847 215.314 10.4375 215.314 10.6312C215.314 10.8959 215.412 11.0961 215.608 11.2317C215.806 11.3651 216.057 11.4318 216.36 11.4318ZM219.908 12V7.04132H220.644V7.79029H220.695C220.786 7.54494 220.949 7.34586 221.186 7.19305C221.423 7.04025 221.69 6.96384 221.987 6.96384C222.043 6.96384 222.112 6.96492 222.196 6.96707C222.28 6.96922 222.344 6.97245 222.387 6.97676V7.75155C222.361 7.74509 222.302 7.73541 222.209 7.72249C222.119 7.70743 222.023 7.6999 221.922 7.6999C221.681 7.6999 221.466 7.75047 221.276 7.85163C221.089 7.95063 220.941 8.08837 220.831 8.26485C220.723 8.43918 220.669 8.63826 220.669 8.86209V12H219.908ZM224 10.1921L223.987 9.24948H224.142L226.312 7.04132H227.254L224.943 9.37862H224.878L224 10.1921ZM223.29 12V5.38843H224.052V12H223.29ZM226.441 12L224.504 9.54649L225.046 9.01705L227.409 12H226.441ZM230.11 12.1033C229.632 12.1033 229.22 11.9978 228.873 11.7869C228.529 11.5739 228.263 11.2769 228.076 10.8959C227.891 10.5128 227.798 10.0673 227.798 9.5594C227.798 9.05148 227.891 8.60382 228.076 8.21643C228.263 7.82688 228.524 7.52342 228.857 7.30604C229.193 7.08652 229.585 6.97676 230.032 6.97676C230.291 6.97676 230.546 7.0198 230.797 7.10589C231.049 7.19198 231.278 7.33187 231.485 7.52557C231.692 7.71711 231.856 7.97107 231.979 8.28745C232.102 8.60382 232.163 8.99337 232.163 9.45609V9.77893H228.341V9.12035H231.388C231.388 8.84056 231.332 8.59091 231.22 8.37138C231.111 8.15186 230.953 7.97861 230.749 7.85163C230.547 7.72465 230.308 7.66116 230.032 7.66116C229.729 7.66116 229.466 7.73648 229.245 7.88714C229.025 8.03564 228.856 8.22934 228.738 8.46823C228.619 8.70713 228.56 8.96324 228.56 9.23657V9.67562C228.56 10.0501 228.625 10.3676 228.754 10.628C228.885 10.8862 229.067 11.0832 229.299 11.2188C229.532 11.3522 229.802 11.4189 230.11 11.4189C230.31 11.4189 230.491 11.3909 230.652 11.335C230.816 11.2769 230.957 11.1908 231.075 11.0767C231.193 10.9605 231.285 10.8163 231.349 10.6441L232.086 10.8507C232.008 11.1004 231.878 11.3199 231.695 11.5093C231.512 11.6965 231.286 11.8429 231.017 11.9483C230.748 12.0517 230.446 12.1033 230.11 12.1033ZM234.084 5.38843V12H233.322V5.38843H234.084ZM237.778 6.09866V5.38843H242.737V6.09866H240.657V12H239.857V6.09866H237.778ZM245.164 12.1033C244.717 12.1033 244.324 11.9968 243.986 11.7837C243.65 11.5706 243.388 11.2726 243.198 10.8895C243.011 10.5064 242.917 10.0587 242.917 9.54649C242.917 9.02996 243.011 8.57907 243.198 8.19383C243.388 7.80858 243.65 7.50943 243.986 7.29636C244.324 7.08329 244.717 6.97676 245.164 6.97676C245.612 6.97676 246.004 7.08329 246.339 7.29636C246.677 7.50943 246.94 7.80858 247.127 8.19383C247.316 8.57907 247.411 9.02996 247.411 9.54649C247.411 10.0587 247.316 10.5064 247.127 10.8895C246.94 11.2726 246.677 11.5706 246.339 11.7837C246.004 11.9968 245.612 12.1033 245.164 12.1033ZM245.164 11.4189C245.504 11.4189 245.784 11.3317 246.004 11.1574C246.223 10.9831 246.386 10.7539 246.491 10.4698C246.596 10.1857 246.649 9.87793 246.649 9.54649C246.649 9.21505 246.596 8.90621 246.491 8.61996C246.386 8.33372 246.223 8.10236 246.004 7.92588C245.784 7.7494 245.504 7.66116 245.164 7.66116C244.824 7.66116 244.544 7.7494 244.325 7.92588C244.105 8.10236 243.943 8.33372 243.837 8.61996C243.732 8.90621 243.679 9.21505 243.679 9.54649C243.679 9.87793 243.732 10.1857 243.837 10.4698C243.943 10.7539 244.105 10.9831 244.325 11.1574C244.544 11.3317 244.824 11.4189 245.164 11.4189ZM248.887 13.8595C248.758 13.8595 248.643 13.8487 248.542 13.8272C248.441 13.8079 248.371 13.7885 248.332 13.7691L248.526 13.0976C248.711 13.145 248.874 13.1622 249.016 13.1493C249.158 13.1364 249.284 13.0729 249.394 12.9588C249.506 12.8469 249.608 12.665 249.701 12.4132L249.843 12.0258L248.009 7.04132H248.836L250.204 10.9928H250.256L251.625 7.04132H252.451L250.346 12.7231C250.252 12.9793 250.134 13.1912 249.995 13.3591C249.855 13.5291 249.692 13.655 249.507 13.7368C249.324 13.8186 249.118 13.8595 248.887 13.8595ZM256.969 8.15186L256.285 8.34556C256.242 8.23149 256.178 8.12065 256.094 8.01304C256.013 7.90328 255.901 7.81289 255.759 7.74186C255.617 7.67084 255.435 7.63533 255.213 7.63533C254.91 7.63533 254.657 7.70528 254.454 7.84517C254.254 7.98291 254.154 8.15832 254.154 8.37138C254.154 8.56078 254.223 8.71036 254.361 8.82012C254.499 8.92988 254.714 9.02135 255.006 9.09452L255.743 9.27531C256.186 9.38292 256.516 9.54756 256.734 9.76924C256.951 9.98877 257.06 10.2718 257.06 10.6183C257.06 10.9024 256.978 11.1563 256.814 11.3802C256.653 11.604 256.427 11.7805 256.136 11.9096C255.846 12.0387 255.508 12.1033 255.123 12.1033C254.617 12.1033 254.198 11.9935 253.867 11.774C253.535 11.5545 253.326 11.2338 253.237 10.812L253.961 10.6312C254.029 10.8981 254.16 11.0982 254.351 11.2317C254.545 11.3651 254.798 11.4318 255.11 11.4318C255.465 11.4318 255.747 11.3565 255.956 11.2058C256.167 11.053 256.272 10.8701 256.272 10.657C256.272 10.4848 256.212 10.3407 256.091 10.2244C255.971 10.1061 255.786 10.0178 255.536 9.95971L254.709 9.76601C254.255 9.6584 253.922 9.49161 253.709 9.26563C253.498 9.03749 253.392 8.75232 253.392 8.41012C253.392 8.13034 253.471 7.88283 253.628 7.66761C253.787 7.45239 254.004 7.28345 254.277 7.16077C254.552 7.03809 254.864 6.97676 255.213 6.97676C255.704 6.97676 256.089 7.08437 256.369 7.29959C256.651 7.51481 256.851 7.7989 256.969 8.15186ZM207.072 22H206.232L208.66 15.3884H209.487L211.914 22H211.075L209.099 16.4344H209.048L207.072 22ZM207.382 19.4174H210.765V20.1276H207.382V19.4174ZM215.966 19.9726V17.0413H216.728V22H215.966V21.1606H215.914C215.798 21.4124 215.617 21.6266 215.372 21.8031C215.126 21.9774 214.817 22.0646 214.442 22.0646C214.132 22.0646 213.857 21.9968 213.616 21.8612C213.375 21.7234 213.185 21.5168 213.047 21.2413C212.91 20.9637 212.841 20.614 212.841 20.1921V17.0413H213.603V20.1405C213.603 20.5021 213.704 20.7905 213.906 21.0057C214.111 21.2209 214.371 21.3285 214.687 21.3285C214.877 21.3285 215.069 21.2801 215.265 21.1832C215.463 21.0864 215.629 20.9379 215.762 20.7377C215.898 20.5376 215.966 20.2825 215.966 19.9726ZM220.28 17.0413V17.687H217.71V17.0413H220.28ZM218.459 15.8533H219.221V20.5795C219.221 20.7948 219.252 20.9562 219.314 21.0638C219.379 21.1692 219.461 21.2403 219.56 21.2769C219.661 21.3113 219.767 21.3285 219.879 21.3285C219.963 21.3285 220.032 21.3242 220.086 21.3156C220.14 21.3048 220.183 21.2962 220.215 21.2898L220.37 21.9742C220.318 21.9935 220.246 22.0129 220.154 22.0323C220.061 22.0538 219.944 22.0646 219.802 22.0646C219.587 22.0646 219.376 22.0183 219.169 21.9257C218.965 21.8332 218.795 21.6922 218.659 21.5028C218.526 21.3134 218.459 21.0746 218.459 20.7862V15.8533ZM222.294 19.017V22H221.532V15.3884H222.294V17.8161H222.359C222.475 17.56 222.649 17.3566 222.882 17.206C223.116 17.0532 223.428 16.9768 223.818 16.9768C224.156 16.9768 224.452 17.0446 224.706 17.1801C224.96 17.3136 225.156 17.5191 225.296 17.7967C225.438 18.0722 225.509 18.423 225.509 18.8492V22H224.748V18.9008C224.748 18.507 224.645 18.2024 224.441 17.9872C224.239 17.7698 223.958 17.6612 223.598 17.6612C223.349 17.6612 223.125 17.7139 222.927 17.8193C222.731 17.9248 222.576 18.0787 222.462 18.281C222.35 18.4833 222.294 18.7287 222.294 19.017ZM228.918 22.1033C228.47 22.1033 228.077 21.9968 227.739 21.7837C227.404 21.5706 227.141 21.2726 226.952 20.8895C226.764 20.5064 226.671 20.0587 226.671 19.5465C226.671 19.03 226.764 18.5791 226.952 18.1938C227.141 17.8086 227.404 17.5094 227.739 17.2964C228.077 17.0833 228.47 16.9768 228.918 16.9768C229.365 16.9768 229.757 17.0833 230.093 17.2964C230.431 17.5094 230.693 17.8086 230.881 18.1938C231.07 18.5791 231.165 19.03 231.165 19.5465C231.165 20.0587 231.07 20.5064 230.881 20.8895C230.693 21.2726 230.431 21.5706 230.093 21.7837C229.757 21.9968 229.365 22.1033 228.918 22.1033ZM228.918 21.4189C229.258 21.4189 229.538 21.3317 229.757 21.1574C229.977 20.9831 230.139 20.7539 230.245 20.4698C230.35 20.1857 230.403 19.8779 230.403 19.5465C230.403 19.215 230.35 18.9062 230.245 18.62C230.139 18.3337 229.977 18.1024 229.757 17.9259C229.538 17.7494 229.258 17.6612 228.918 17.6612C228.578 17.6612 228.298 17.7494 228.078 17.9259C227.859 18.1024 227.696 18.3337 227.591 18.62C227.485 18.9062 227.433 19.215 227.433 19.5465C227.433 19.8779 227.485 20.1857 227.591 20.4698C227.696 20.7539 227.859 20.9831 228.078 21.1574C228.298 21.3317 228.578 21.4189 228.918 21.4189ZM232.328 22V17.0413H233.064V17.7903H233.115C233.206 17.5449 233.369 17.3459 233.606 17.1931C233.843 17.0402 234.11 16.9638 234.407 16.9638C234.463 16.9638 234.533 16.9649 234.617 16.9671C234.7 16.9692 234.764 16.9725 234.807 16.9768V17.7515C234.781 17.7451 234.722 17.7354 234.629 17.7225C234.539 17.7074 234.443 17.6999 234.342 17.6999C234.101 17.6999 233.886 17.7505 233.696 17.8516C233.509 17.9506 233.361 18.0884 233.251 18.2649C233.143 18.4392 233.09 18.6383 233.09 18.8621V22H232.328ZM235.71 22V17.0413H236.472V22H235.71ZM236.097 16.2149C235.949 16.2149 235.821 16.1643 235.713 16.0631C235.608 15.962 235.555 15.8404 235.555 15.6983C235.555 15.5563 235.608 15.4347 235.713 15.3335C235.821 15.2324 235.949 15.1818 236.097 15.1818C236.246 15.1818 236.373 15.2324 236.478 15.3335C236.586 15.4347 236.64 15.5563 236.64 15.6983C236.64 15.8404 236.586 15.962 236.478 16.0631C236.373 16.1643 236.246 16.2149 236.097 16.2149ZM240.024 17.0413V17.687H237.454V17.0413H240.024ZM238.203 15.8533H238.965V20.5795C238.965 20.7948 238.996 20.9562 239.059 21.0638C239.123 21.1692 239.205 21.2403 239.304 21.2769C239.405 21.3113 239.512 21.3285 239.624 21.3285C239.708 21.3285 239.776 21.3242 239.83 21.3156C239.884 21.3048 239.927 21.2962 239.959 21.2898L240.114 21.9742C240.063 21.9935 239.991 22.0129 239.898 22.0323C239.805 22.0538 239.688 22.0646 239.546 22.0646C239.331 22.0646 239.12 22.0183 238.913 21.9257C238.709 21.8332 238.539 21.6922 238.403 21.5028C238.27 21.3134 238.203 21.0746 238.203 20.7862V15.8533ZM241.661 23.8595C241.532 23.8595 241.416 23.8487 241.315 23.8272C241.214 23.8079 241.144 23.7885 241.105 23.7691L241.299 23.0976C241.484 23.145 241.648 23.1622 241.79 23.1493C241.932 23.1364 242.058 23.0729 242.168 22.9588C242.279 22.8469 242.382 22.665 242.474 22.4132L242.616 22.0258L240.783 17.0413H241.609L242.978 20.9928H243.029L244.398 17.0413H245.225L243.12 22.7231C243.025 22.9793 242.908 23.1912 242.768 23.3591C242.628 23.5291 242.466 23.655 242.281 23.7368C242.098 23.8186 241.891 23.8595 241.661 23.8595Z" fill="#787878"/>
<path d="M1.57812 6H5.125L9.875 17.5937H10.0625L14.8125 6H18.3594V22H15.5781V11.0078H15.4297L11.0078 21.9531H8.92969L4.50781 10.9844H4.35938V22H1.57812V6ZM28.6641 12.8359V15.1641H21.4609V12.8359H28.6641ZM45.459 11.3984H42.5371C42.4538 10.9193 42.3001 10.4948 42.0762 10.125C41.8522 9.75 41.5736 9.43229 41.2402 9.17187C40.9069 8.91146 40.5267 8.71615 40.0996 8.58594C39.6777 8.45052 39.222 8.38281 38.7324 8.38281C37.8626 8.38281 37.0918 8.60156 36.4199 9.03906C35.748 9.47135 35.222 10.1068 34.8418 10.9453C34.4616 11.7786 34.2715 12.7969 34.2715 14C34.2715 15.224 34.4616 16.2552 34.8418 17.0937C35.2272 17.9271 35.7533 18.5573 36.4199 18.9844C37.0918 19.4062 37.86 19.6172 38.7246 19.6172C39.2038 19.6172 39.6517 19.5547 40.0684 19.4297C40.4902 19.2995 40.8678 19.1094 41.2012 18.8594C41.5397 18.6094 41.8236 18.3021 42.0527 17.9375C42.2871 17.5729 42.4486 17.1562 42.5371 16.6875L45.459 16.7031C45.3496 17.4635 45.1126 18.1771 44.748 18.8438C44.3887 19.5104 43.9173 20.099 43.334 20.6094C42.7507 21.1146 42.0684 21.5104 41.2871 21.7969C40.5059 22.0781 39.6387 22.2187 38.6855 22.2187C37.2793 22.2187 36.0241 21.8932 34.9199 21.2422C33.8158 20.5911 32.946 19.651 32.3105 18.4219C31.6751 17.1927 31.3574 15.7187 31.3574 14C31.3574 12.276 31.6777 10.8021 32.3184 9.57812C32.959 8.34896 33.8314 7.40885 34.9355 6.75781C36.0397 6.10677 37.2897 5.78125 38.6855 5.78125C39.5762 5.78125 40.4043 5.90625 41.1699 6.15625C41.9355 6.40625 42.6178 6.77344 43.2168 7.25781C43.8158 7.73698 44.3079 8.32552 44.6934 9.02344C45.084 9.71615 45.3392 10.5078 45.459 11.3984ZM62.4102 14C62.4102 15.724 62.0872 17.2005 61.4414 18.4297C60.8008 19.6536 59.9258 20.5911 58.8164 21.2422C57.7122 21.8932 56.4596 22.2187 55.0586 22.2187C53.6576 22.2187 52.4023 21.8932 51.293 21.2422C50.1888 20.5859 49.3138 19.6458 48.668 18.4219C48.0273 17.1927 47.707 15.7187 47.707 14C47.707 12.276 48.0273 10.8021 48.668 9.57812C49.3138 8.34896 50.1888 7.40885 51.293 6.75781C52.4023 6.10677 53.6576 5.78125 55.0586 5.78125C56.4596 5.78125 57.7122 6.10677 58.8164 6.75781C59.9258 7.40885 60.8008 8.34896 61.4414 9.57812C62.0872 10.8021 62.4102 12.276 62.4102 14ZM59.4961 14C59.4961 12.7865 59.306 11.763 58.9258 10.9297C58.5508 10.0911 58.0299 9.45833 57.3633 9.03125C56.6966 8.59896 55.9284 8.38281 55.0586 8.38281C54.1888 8.38281 53.4206 8.59896 52.7539 9.03125C52.0872 9.45833 51.5638 10.0911 51.1836 10.9297C50.8086 11.763 50.6211 12.7865 50.6211 14C50.6211 15.2135 50.8086 16.2396 51.1836 17.0781C51.5638 17.9115 52.0872 18.5443 52.7539 18.9766C53.4206 19.4036 54.1888 19.6172 55.0586 19.6172C55.9284 19.6172 56.6966 19.4036 57.3633 18.9766C58.0299 18.5443 58.5508 17.9115 58.9258 17.0781C59.306 16.2396 59.4961 15.2135 59.4961 14ZM65.1504 22V6H68.0488V19.5703H75.0957V22H65.1504ZM77.6113 22V6H80.5098V19.5703H87.5566V22H77.6113ZM90.0723 22V6H100.479V8.42969H92.9707V12.7734H99.9395V15.2031H92.9707V19.5703H100.541V22H90.0723ZM117.131 11.3984H114.209C114.126 10.9193 113.972 10.4948 113.748 10.125C113.524 9.75 113.245 9.43229 112.912 9.17187C112.579 8.91146 112.199 8.71615 111.771 8.58594C111.35 8.45052 110.894 8.38281 110.404 8.38281C109.535 8.38281 108.764 8.60156 108.092 9.03906C107.42 9.47135 106.894 10.1068 106.514 10.9453C106.133 11.7786 105.943 12.7969 105.943 14C105.943 15.224 106.133 16.2552 106.514 17.0937C106.899 17.9271 107.425 18.5573 108.092 18.9844C108.764 19.4062 109.532 19.6172 110.396 19.6172C110.876 19.6172 111.324 19.5547 111.74 19.4297C112.162 19.2995 112.54 19.1094 112.873 18.8594C113.212 18.6094 113.495 18.3021 113.725 17.9375C113.959 17.5729 114.12 17.1562 114.209 16.6875L117.131 16.7031C117.021 17.4635 116.785 18.1771 116.42 18.8438C116.061 19.5104 115.589 20.099 115.006 20.6094C114.423 21.1146 113.74 21.5104 112.959 21.7969C112.178 22.0781 111.311 22.2187 110.357 22.2187C108.951 22.2187 107.696 21.8932 106.592 21.2422C105.488 20.5911 104.618 19.651 103.982 18.4219C103.347 17.1927 103.029 15.7187 103.029 14C103.029 12.276 103.35 10.8021 103.99 9.57812C104.631 8.34896 105.503 7.40885 106.607 6.75781C107.712 6.10677 108.962 5.78125 110.357 5.78125C111.248 5.78125 112.076 5.90625 112.842 6.15625C113.607 6.40625 114.29 6.77344 114.889 7.25781C115.488 7.73698 115.98 8.32552 116.365 9.02344C116.756 9.71615 117.011 10.5078 117.131 11.3984ZM119.082 8.42969V6H131.848V8.42969H126.902V22H124.027V8.42969H119.082Z" fill="#D5D5D5"/>
<line x1="143.5" y1="5" x2="143.5" y2="23" stroke="#D5D5D5"/>
</svg>
